<?xml version="1.0" standalone="no"?>
<!DOCTYPE svg PUBLIC "-//W3C//DTD SVG 20010904//EN"
 "http://www.w3.org/TR/2001/REC-SVG-20010904/DTD/svg10.dtd">
<svg version="1.0" xmlns="http://www.w3.org/2000/svg"
 width="235.000000pt" height="214.000000pt" viewBox="0 0 235.000000 214.000000"
 preserveAspectRatio="xMidYMid meet">

<g transform="translate(0.000000,214.000000) scale(0.100000,-0.100000)"
fill="#000000" stroke="none">
<path d="M1033 1936 c-91 -18 -163 -41 -238 -79 -75 -37 -181 -110 -166 -115
6 -2 32 13 58 33 61 46 171 99 265 126 125 36 363 37 454 2 8 -3 14 -1 14 5 0
31 -270 50 -387 28z"/>
<path d="M1095 1904 c-67 -8 -144 -28 -217 -56 -62 -23 -76 -32 -71 -46 5 -14
3 -15 -7 -5 -11 10 -21 8 -49 -9 -265 -160 -424 -456 -408 -762 5 -105 10
-138 33 -214 20 -69 91 -212 105 -212 5 0 8 -4 5 -8 -3 -5 13 -31 35 -58 52
-62 79 -88 79 -74 0 6 4 9 10 5 5 -3 7 -12 4 -19 -3 -8 -1 -17 4 -20 6 -3 13
2 16 11 5 12 -2 24 -23 40 -16 13 -50 52 -75 87 -46 65 -126 219 -126 243 0 7
-5 13 -11 13 -6 0 -9 6 -6 13 2 6 -3 18 -12 25 -9 8 -10 10 -2 6 11 -5 13 -1
8 22 -4 16 -10 72 -13 124 -19 281 102 536 341 719 17 12 23 19 15 15 -9 -4
-12 -3 -7 2 5 5 14 9 20 9 7 0 40 15 74 33 162 84 390 111 563 66 14 -4 36 -6
50 -6 14 0 27 -3 30 -7 9 -13 130 -72 130 -64 0 4 4 2 8 -4 8 -13 94 -78 144
-110 16 -10 28 -22 28 -26 0 -5 18 -30 40 -55 23 -25 57 -73 77 -106 20 -34
41 -64 45 -67 5 -3 8 -10 7 -15 -4 -22 2 -35 13 -28 8 5 9 2 5 -9 -8 -22 12
-79 26 -70 6 4 8 -2 4 -16 -3 -14 -1 -21 6 -18 7 2 10 15 9 28 -7 44 -64 180
-78 186 -8 3 -14 12 -14 20 0 35 -114 173 -143 173 -16 0 -18 3 -9 9 24 15
-106 108 -228 165 -124 57 -301 85 -435 70z"/>
<path d="M1446 1903 c-3 -3 29 -20 72 -38 103 -42 183 -94 266 -174 246 -237
334 -576 232 -897 -13 -41 -20 -74 -16 -74 10 0 44 103 59 178 15 75 14 247
-3 334 -49 256 -216 483 -447 607 -82 45 -154 73 -163 64z"/>
<path d="M1132 1792 c-13 -4 -16 -98 -6 -176 l7 -46 48 0 c42 0 49 3 49 20 0
16 -7 20 -30 20 -27 0 -30 3 -30 30 0 25 4 30 25 30 18 0 25 5 25 20 0 15 -7
20 -25 20 -18 0 -25 5 -25 19 0 20 25 35 41 25 5 -3 9 7 9 21 0 24 -3 26 -38
24 -21 -2 -43 -4 -50 -7z"/>
<path d="M972 1763 c-44 -13 -53 -19 -50 -37 2 -16 9 -20 31 -18 22 3 27 0 27
-18 0 -12 8 -51 17 -86 15 -57 20 -63 38 -58 11 4 21 8 23 9 2 2 -8 40 -21 86
-24 83 -24 84 -5 92 13 4 18 13 14 23 -3 9 -6 18 -6 20 0 6 -9 4 -68 -13z"/>
<path d="M1321 1703 c-17 -38 -40 -82 -51 -100 l-21 -31 20 -7 c25 -8 41 1 41
21 0 18 30 18 54 1 17 -12 17 -15 2 -29 -14 -14 -13 -16 7 -20 19 -4 22 0 24
34 1 21 -3 38 -8 38 -6 0 -7 -6 -3 -12 4 -7 3 -9 -1 -5 -16 14 -14 38 3 35 14
-2 18 9 23 62 7 69 2 80 -37 80 -16 0 -28 -15 -53 -67z m49 -28 c0 -41 -23
-56 -48 -31 -15 15 -15 16 6 16 15 0 24 8 28 25 9 35 14 31 14 -10z"/>
<path d="M548 1678 c-85 -91 -197 -268 -170 -268 4 0 20 24 34 53 31 64 112
171 171 226 23 22 36 41 28 41 -8 0 -36 -24 -63 -52z"/>
<path d="M799 1687 c-29 -22 -37 -48 -27 -79 11 -32 42 -48 89 -48 22 0 29 -5
29 -20 0 -12 -10 -25 -24 -31 -28 -13 -24 -39 6 -39 26 0 68 44 68 72 -1 39
-26 62 -77 68 -36 4 -49 10 -51 23 -3 12 4 20 18 24 12 3 20 12 18 22 -4 20
-28 24 -49 8z"/>
<path d="M1478 1607 c-57 -90 -57 -92 -35 -102 12 -5 30 -19 41 -29 18 -18 20
-18 32 -1 11 15 10 20 -8 35 l-21 17 46 74 c34 54 43 77 35 86 -20 24 -33 12
-90 -80z m27 -17 c3 -5 1 -10 -4 -10 -6 0 -11 5 -11 10 0 6 2 10 4 10 3 0 8
-4 11 -10z"/>
<path d="M1226 1495 c189 -29 323 -137 374 -304 63 -201 -28 -424 -209 -516
-61 -31 -149 -54 -211 -57 -43 -1 -43 -2 -8 -5 183 -19 392 137 444 330 29
111 10 249 -49 349 -72 123 -250 221 -391 217 -17 -1 5 -7 50 -14z"/>
<path d="M1029 1476 c-31 -12 -72 -33 -92 -45 -79 -49 -169 -178 -183 -263 -3
-20 3 -9 16 25 27 75 60 127 115 182 50 49 148 101 215 114 36 7 39 9 15 10
-16 0 -55 -10 -86 -23z"/>
<path d="M1100 1467 c-99 -22 -220 -101 -244 -159 -7 -15 -15 -26 -18 -23 -7
7 -43 -78 -59 -138 -7 -29 -10 -78 -6 -123 18 -238 246 -416 478 -375 141 24
248 107 313 241 29 60 31 73 31 170 0 94 -3 111 -28 164 -87 186 -278 285
-467 243z m243 -50 c159 -73 258 -253 228 -418 -6 -34 -19 -80 -30 -102 -11
-22 -17 -45 -14 -50 3 -6 1 -7 -5 -3 -11 7 -17 -6 -13 -27 1 -5 -2 -6 -7 -3
-5 3 -28 -15 -52 -39 -23 -24 -70 -56 -104 -72 -54 -25 -72 -28 -161 -28 -88
0 -107 3 -158 27 -60 28 -162 117 -172 149 -4 11 -11 16 -17 13 -6 -4 -9 -1
-6 7 3 8 -1 26 -8 40 -22 45 -34 144 -24 207 25 151 146 286 287 322 70 17
192 7 256 -23z"/>
<path d="M1304 1173 c-63 -73 -95 -112 -133 -162 -13 -17 -27 -31 -32 -31 -5
0 -40 25 -76 57 l-67 56 -28 -34 c-15 -18 -28 -36 -28 -40 0 -7 84 -82 170
-152 l34 -27 33 32 c19 18 36 43 39 55 4 13 10 21 14 18 5 -3 18 7 29 22 17
21 19 28 9 36 -9 6 -8 7 4 4 21 -7 40 15 32 37 -4 11 -1 16 13 16 12 0 42 25
73 61 l53 60 -29 30 c-15 16 -33 29 -40 29 -7 0 -38 -30 -70 -67z"/>
<path d="M341 1332 c-47 -150 -55 -313 -21 -464 33 -148 124 -328 200 -391 16
-14 26 -27 23 -31 -3 -3 6 -11 20 -17 15 -7 24 -16 21 -20 -3 -5 3 -9 12 -9
12 0 -2 20 -43 63 -141 146 -216 317 -238 537 -8 76 12 238 39 321 12 38 20
72 16 74 -4 3 -17 -26 -29 -63z"/>
<path d="M1995 1073 c0 -206 -30 -312 -132 -466 -92 -139 -219 -241 -385 -309
-43 -18 -78 -35 -78 -39 0 -20 26 -17 97 12 201 82 374 245 458 433 13 28 25
62 27 76 2 14 6 27 10 30 28 21 53 359 28 375 -5 3 -7 12 -3 20 3 9 -1 15 -8
15 -11 0 -14 -30 -14 -147z m-62 -388 c-3 -9 -8 -14 -10 -11 -3 3 -2 9 2 15 9
16 15 13 8 -4z"/>
<path d="M1805 1137 c-9 -44 -15 -49 -61 -49 -42 0 -43 -7 -4 -33 22 -14 29
-26 25 -40 -2 -11 -8 -31 -12 -44 l-6 -24 34 25 c31 24 36 25 54 12 51 -38 55
-38 40 5 l-14 40 37 31 37 30 -43 -4 c-39 -5 -44 -3 -53 22 -24 68 -26 70 -34
29z"/>
<path d="M542 1121 c-12 -40 -14 -41 -55 -41 l-42 0 33 -22 c34 -21 36 -31 16
-83 -6 -15 -4 -16 14 -6 12 6 27 20 34 30 14 19 14 19 26 1 6 -11 20 -24 31
-29 18 -10 19 -9 9 26 -9 33 -8 38 19 59 l28 23 -37 1 c-34 0 -37 3 -50 41
l-14 42 -12 -42z m33 -61 c3 -5 2 -10 -4 -10 -5 0 -13 5 -16 10 -3 6 -2 10 4
10 5 0 13 -4 16 -10z"/>
<path d="M743 1060 c0 -41 2 -58 4 -37 2 20 2 54 0 75 -2 20 -4 3 -4 -38z"/>
<path d="M751 969 c-1 -21 29 -108 40 -115 5 -3 1 16 -10 43 -10 26 -21 57
-24 68 -3 13 -5 15 -6 4z"/>
<path d="M800 833 c0 -5 14 -24 31 -43 l30 -35 -27 43 c-26 41 -34 50 -34 35z"/>
<path d="M870 746 c0 -2 8 -10 18 -17 15 -13 16 -12 3 4 -13 16 -21 21 -21 13z"/>
<path d="M910 710 c0 -5 5 -10 11 -10 5 0 7 5 4 10 -3 6 -8 10 -11 10 -2 0 -4
-4 -4 -10z"/>
<path d="M1980 700 c0 -5 5 -10 10 -10 6 0 10 5 10 10 0 6 -4 10 -10 10 -5 0
-10 -4 -10 -10z"/>
<path d="M960 676 c19 -19 121 -56 152 -55 13 0 1 6 -27 13 -27 7 -70 23 -95
35 -31 16 -40 18 -30 7z"/>
<path d="M1937 618 c-41 -73 -140 -190 -197 -233 -39 -30 -49 -45 -30 -45 15
0 164 151 197 200 52 79 85 140 75 140 -6 0 -26 -28 -45 -62z"/>
<path d="M827 572 c-77 -134 -74 -120 -23 -142 50 -23 77 -17 112 21 67 75 59
146 -23 188 -20 10 -25 5 -66 -67z m89 -24 c-16 -42 -68 -108 -84 -108 -18 0
-7 35 25 84 18 28 33 54 33 58 0 7 32 17 39 11 2 -1 -4 -22 -13 -45z"/>
<path d="M1468 634 c-30 -16 -44 -50 -34 -88 6 -25 48 -46 92 -46 33 0 32 -37
-1 -50 -16 -6 -23 -14 -19 -25 15 -39 94 10 94 60 0 36 -33 65 -74 65 -20 0
-42 8 -52 18 -17 16 -16 17 9 26 27 10 33 22 19 43 -5 8 -14 7 -34 -3z m9 -20
c-3 -3 -12 -4 -19 -1 -8 3 -5 6 6 6 11 1 17 -2 13 -5z"/>
<path d="M1004 543 c-3 -16 -15 -63 -26 -107 -10 -43 -18 -79 -16 -81 2 -1 23
-7 48 -13 34 -8 46 -8 52 1 13 20 9 26 -16 33 -15 3 -26 15 -29 29 -4 26 10
36 42 30 12 -2 21 3 24 16 4 13 0 19 -12 19 -9 0 -25 10 -35 22 -15 18 -16 20
-2 15 9 -4 16 -2 16 4 0 7 10 9 24 5 17 -4 26 -1 30 10 9 23 9 22 -31 33 -55
16 -62 14 -69 -16z"/>
<path d="M1313 562 c-10 -6 -7 -30 12 -102 14 -52 27 -100 30 -107 3 -8 15 -8
47 -1 52 13 57 16 38 29 -13 8 -13 10 0 19 11 7 6 8 -17 4 -27 -5 -33 -3 -33
10 0 9 -6 19 -14 22 -8 3 -13 15 -11 26 6 30 -15 108 -29 108 -6 0 -17 -4 -23
-8z"/>
<path d="M1161 499 c-6 -29 -9 -54 -7 -57 3 -2 2 -12 -3 -21 -5 -9 -11 -35
-15 -58 -6 -41 -5 -43 19 -43 18 0 25 5 25 19 0 11 3 26 6 34 5 14 8 13 25 -1
10 -9 19 -24 19 -34 0 -13 7 -17 25 -16 17 2 24 7 21 18 -3 8 -14 59 -26 113
-21 95 -22 97 -50 97 -26 0 -29 -4 -39 -51z m52 15 c-4 -12 -8 -13 -14 -3 -9
15 -2 32 11 24 5 -3 6 -13 3 -21z m-1 -73 c2 -21 -2 -36 -9 -38 -9 -3 -13 9
-13 43 0 54 16 50 22 -5z"/>
<path d="M652 418 c6 -43 228 -168 298 -168 15 0 30 -4 35 -9 22 -22 229 -40
240 -21 3 6 13 7 20 3 26 -15 105 -2 116 18 6 13 6 19 -1 19 -5 0 -10 -3 -10
-7 0 -5 -64 -8 -143 -8 -205 1 -338 42 -493 150 -58 40 -65 43 -62 23z m365
-174 c-3 -3 -12 -4 -19 -1 -8 3 -5 6 6 6 11 1 17 -2 13 -5z"/>
<path d="M621 374 c21 -26 92 -71 178 -114 83 -42 101 -47 101 -30 0 6 -8 10
-19 10 -23 0 -145 67 -210 115 -52 37 -72 45 -50 19z"/>
<path d="M1620 304 c-67 -41 -158 -77 -265 -103 -47 -12 -68 -20 -50 -20 43
-1 145 25 213 53 71 30 172 88 172 98 0 13 -12 8 -70 -28z"/>
<path d="M915 220 c-4 -6 -4 -10 -1 -10 2 0 11 -3 20 -6 9 -3 16 -2 16 4 0 14
-28 23 -35 12z"/>
<path d="M999 195 c41 -18 211 -33 211 -18 0 6 -43 13 -97 16 -54 3 -109 9
-123 12 -17 4 -14 1 9 -10z"/>
<path d="M1240 180 c0 -6 7 -10 15 -10 8 0 15 2 15 4 0 2 -7 6 -15 10 -8 3
-15 1 -15 -4z"/>
</g>
</svg>
